<svg xmlns="http://www.w3.org/2000/svg" width="346" height="220" viewBox="0 0 346 220" fill="none">
  <path opacity="0.42" d="M59.9312 89.9524C52.2655 105.2 29.434 100.574 13.0055 117.871C-4.06025 135.838 -4.96026 166.821 14.8597 185.938C34.9712 205.337 68.384 204.771 84.674 204.495C111.447 204.042 121.487 196.981 142.708 192.905C216.993 178.64 257.434 233.768 305.135 216.102C331.093 206.49 349.041 179.061 344.243 159.375C336.031 125.681 258.857 118.598 262.384 101.757C265.348 87.6053 320.218 90.8081 329.86 69.8638C338.504 51.0853 304.913 25.6738 281.344 14.401C270.481 9.20525 238.698 -6.53475 211.827 3.68383C190.565 11.7681 190.913 27.9353 172.285 31.5738C149.828 35.961 141.458 13.9981 109.641 11.7167C86.1983 10.0353 56.2383 19.4838 48.9912 36.0638C40.474 55.5538 69.1769 71.5638 59.9312 89.9524Z" fill="#D5F0FF"/>
</svg>