<svg xmlns="http://www.w3.org/2000/svg" width="90" height="65" viewBox="0 0 90 65" fill="none">
  <path d="M47.123 51.7051C33.4587 58.1108 -6.84849 34.8537 1.10151 16.2537C1.61865 15.0422 4.51438 8.26795 12.8672 4.12509C21.8672 -0.339195 31.5801 1.04081 32.6944 1.19938C56.4029 4.56795 60.8887 45.2508 47.123 51.7051Z" fill="#62CBEC"/>
  <path d="M49.6786 51.7403C36.0143 58.146 -4.29283 34.8888 3.65717 16.2888C4.17432 15.0774 7.07003 8.3031 15.4229 4.16025C24.4229 -0.304039 34.1357 1.07596 35.25 1.23454C58.96 4.60311 63.4458 45.286 49.6786 51.7403Z" fill="#BBE6F9"/>
  <path d="M53.3771 64.5183C53.3685 64.5211 53.3599 64.524 53.3513 64.5254C52.9713 64.6297 52.6156 64.5083 52.557 64.2554C49.8213 52.5126 44.6713 41.5211 37.2499 31.5868C31.3171 23.644 23.9213 16.3768 15.2671 9.9897C15.0342 9.81684 15.0913 9.50542 15.3971 9.29256C15.7028 9.0797 16.1399 9.04827 16.3728 9.2197C25.0885 15.654 32.5385 22.9726 38.5142 30.9726C45.9885 40.9783 51.1756 52.0497 53.9313 63.8783C53.9899 64.1268 53.7442 64.4083 53.3771 64.5183Z" fill="white"/>
  <path d="M28.7131 20.6262C28.5703 20.669 28.4188 20.6833 28.2788 20.659C27.9331 20.6004 27.7874 20.3376 27.9546 20.069C29.4974 17.6033 30.3945 15.0947 30.6231 12.6119C30.8445 10.2062 30.4274 7.92758 29.3831 5.83758C29.266 5.60329 29.4688 5.29901 29.8345 5.15758C30.2003 5.01615 30.5931 5.09044 30.7088 5.32473C31.806 7.52044 32.2445 9.91615 32.0117 12.4447C31.7717 15.0533 30.8274 17.6904 29.206 20.2804C29.1088 20.439 28.9217 20.5633 28.7131 20.6262Z" fill="white"/>
  <path d="M42.108 36.216C41.9051 36.2774 41.688 36.2774 41.5194 36.206C41.228 36.0802 41.1966 35.7817 41.448 35.5388C43.7666 33.2974 45.5194 30.8888 46.658 28.3788C47.7609 25.9474 48.2408 23.5245 48.0808 21.1774C48.0637 20.9145 48.3594 20.6402 48.7437 20.5631C49.128 20.486 49.4537 20.6374 49.4708 20.9003C49.638 23.3674 49.1351 25.9131 47.9751 28.4688C46.778 31.106 44.9366 33.6374 42.5008 35.9931C42.3966 36.0945 42.2566 36.1702 42.108 36.216Z" fill="white"/>
  <path d="M31.3351 28.2385C28.4808 29.0971 25.5737 29.66 22.6651 29.9157C19.0837 30.2314 15.6494 30.07 12.4594 29.4342C12.1194 29.3671 11.9894 29.0971 12.1694 28.8314C12.3494 28.5657 12.7708 28.4057 13.1108 28.4742C16.1465 29.08 19.4137 29.2342 22.8223 28.9328C26.3394 28.6228 29.8537 27.8414 33.2665 26.6114C33.6365 26.4785 34.0208 26.5642 34.1251 26.8028C34.228 27.0414 34.0123 27.3442 33.6423 27.4771C32.8765 27.7528 32.108 28.0071 31.3351 28.2385Z" fill="white"/>
  <path d="M46.8097 46.0245C46.7726 46.0359 46.7354 46.0445 46.6969 46.0517C42.974 46.7445 39.3197 46.9331 35.834 46.6131C32.4569 46.3031 29.3826 45.5274 26.6968 44.3074C26.4111 44.1774 26.3868 43.8774 26.644 43.6359C26.9011 43.3945 27.3411 43.3045 27.6268 43.4345C30.1826 44.5959 33.1083 45.3331 36.3226 45.6288C39.6383 45.9331 43.1169 45.7531 46.6597 45.0945C47.044 45.0231 47.364 45.1788 47.3754 45.4431C47.3826 45.6817 47.1383 45.9259 46.8097 46.0245Z" fill="white"/>
  <path d="M55.0576 51.8925C67.7476 54.7782 97.4319 27.7753 87.3162 13.5668C86.6576 12.6411 82.9733 7.46677 75.1748 5.51106C66.7719 3.40392 58.8434 6.35106 57.9334 6.68963C38.5748 13.8868 42.2733 48.9868 55.0576 51.8925Z" fill="#8BDCEF"/>
  <path d="M52.9098 52.3925C65.5998 55.2782 95.2841 28.2753 85.1684 14.0668C84.5098 13.1411 80.8255 7.96677 73.0269 6.01106C64.6241 3.90392 56.6941 6.85106 55.7841 7.18963C36.4284 14.3853 40.1255 49.4854 52.9098 52.3925Z" fill="#D2EDF7"/>
  <path d="M52.1414 63.839C52.1485 63.839 52.1571 63.8404 52.1642 63.8404C52.5042 63.859 52.7814 63.6919 52.7842 63.4676C52.9314 53.0704 55.25 42.8647 59.6757 33.1304C63.2142 25.3476 68.11 17.8661 74.2271 10.8947C74.3928 10.7061 74.2857 10.4547 73.9899 10.3319C73.6942 10.209 73.32 10.2619 73.1543 10.4504C66.9928 17.4733 62.0614 25.009 58.4971 32.8476C54.0385 42.6519 51.7028 52.9319 51.5557 63.4047C51.5528 63.6219 51.8128 63.8133 52.1414 63.839Z" fill="white"/>
  <path d="M64.8541 22.3259C64.9812 22.3359 65.1127 22.3202 65.227 22.2745C65.5084 22.1617 65.5812 21.9131 65.3912 21.7188C63.6384 19.9259 62.4212 17.9774 61.7727 15.9274C61.1441 13.9417 61.0755 11.9445 61.5727 9.99165C61.6284 9.77307 61.4027 9.55308 61.067 9.50166C60.7327 9.4488 60.4155 9.58451 60.3598 9.80308C59.8384 11.8545 59.9098 13.9531 60.5712 16.0402C61.2541 18.1945 62.5327 20.2417 64.3741 22.1274C64.4856 22.2402 64.667 22.3117 64.8541 22.3259Z" fill="white"/>
  <path d="M56.436 37.9218C56.6175 37.9361 56.8017 37.8975 56.9289 37.8047C57.1503 37.6461 57.1232 37.3875 56.866 37.229C54.5018 35.7661 52.5818 34.059 51.1618 32.1547C49.7846 30.309 48.936 28.3561 48.6389 26.349C48.606 26.1247 48.306 25.9475 47.9675 25.9533C47.6303 25.959 47.3832 26.1461 47.416 26.3718C47.7289 28.4804 48.6203 30.5333 50.0675 32.4733C51.5603 34.4747 53.5775 36.269 56.0632 37.8061C56.1703 37.8733 56.3032 37.9118 56.436 37.9218Z" fill="white"/>
  <path d="M64.0441 29.221C66.607 29.4196 69.1584 29.3596 71.657 29.041C74.7327 28.6496 77.5955 27.881 80.167 26.7596C80.4413 26.6396 80.5013 26.3882 80.2999 26.1982C80.0999 26.0082 79.7156 25.951 79.4413 26.0696C76.9956 27.1381 74.2713 27.8682 71.3441 28.241C68.3241 28.6253 65.2199 28.6139 62.1184 28.2053C61.7813 28.161 61.4741 28.3039 61.4313 28.5239C61.3884 28.7439 61.6256 28.9596 61.9627 29.0039C62.6556 29.0953 63.3513 29.1682 64.0441 29.221Z" fill="white"/>
  <path d="M54.2776 47.0511C54.3105 47.054 54.3448 47.054 54.3791 47.054C57.6433 46.954 60.7562 46.4411 63.6348 45.5311C66.4233 44.6497 68.8705 43.4311 70.9091 41.9097C71.1262 41.7469 71.0905 41.4897 70.8305 41.334C70.5705 41.1783 70.1819 41.184 69.9648 41.3454C68.0248 42.794 65.6962 43.9526 63.0419 44.7926C60.3034 45.6583 57.3405 46.1454 54.2348 46.2412C53.8977 46.2512 53.6562 46.4426 53.6962 46.6669C53.7319 46.8669 53.9819 47.0283 54.2776 47.0511Z" fill="white"/>
</svg>