<svg xmlns="http://www.w3.org/2000/svg" width="103" height="61" viewBox="0 0 103 61" fill="none">
  <path d="M75.6437 7.74797C73.018 8.03797 70.5494 8.77369 68.3023 9.86654C62.3908 3.88654 53.9023 0.567972 44.8951 1.56369C40.038 2.10083 35.6008 3.8294 31.8437 6.42654C29.5466 2.27083 24.9108 -0.317741 19.8966 0.236544C13.2408 0.972258 8.44227 6.96369 9.17799 13.618C9.37085 15.3694 9.92942 16.9908 10.7666 18.418C3.66656 22.2394 -0.773441 30.0994 0.166559 38.6051C1.40227 49.7908 11.4723 57.8551 22.658 56.6194C26.0408 56.2451 29.1366 55.0623 31.7766 53.2865C37.2337 57.078 44.0323 58.9894 51.1551 58.2023C57.848 57.4623 63.7394 54.4594 68.1566 50.0437C71.868 51.8894 76.1351 52.7251 80.5608 52.2365C92.8466 50.878 101.705 39.818 100.347 27.5337C98.9894 15.248 87.9294 6.3894 75.6437 7.74797Z" fill="#84B2FE"/>
  <path d="M78.068 9.68743C75.4423 9.97743 72.9737 10.7131 70.7266 11.806C64.8152 5.826 56.3266 2.50743 47.3195 3.50314C42.4623 4.04028 38.0252 5.76885 34.268 8.366C31.9709 4.21028 27.3352 1.62171 22.3209 2.176C15.6652 2.91171 10.8666 8.90314 11.6023 15.5574C11.7952 17.3089 12.3537 18.9303 13.1909 20.3574C6.09088 24.1789 1.65088 32.0389 2.59088 40.5446C3.82659 51.7303 13.8966 59.7946 25.0823 58.5589C28.4652 58.1846 31.5609 57.0017 34.2009 55.226C39.658 59.0174 46.4566 60.9288 53.5795 60.1417C60.2723 59.4017 66.1637 56.3989 70.5809 51.9831C74.2923 53.8289 78.5594 54.6646 82.9852 54.176C95.2709 52.8174 104.129 41.7574 102.771 29.4731C101.414 17.1874 90.3537 8.32885 78.068 9.68743Z" fill="white"/>
</svg>