<svg xmlns="http://www.w3.org/2000/svg" width="113" height="62" viewBox="0 0 113 62" fill="none">
  <path d="M93.9494 14.7193C91.6023 14.6136 89.3309 14.9193 87.2066 15.5722C82.8337 9.50363 75.8294 5.42077 67.7766 5.05792C63.4337 4.8622 59.298 5.7722 55.6394 7.53792C54.1923 3.56934 50.4737 0.657915 45.9909 0.456486C40.0409 0.187915 35.0009 4.79363 34.7323 10.7436C34.6909 11.6708 34.768 12.5751 34.9494 13.4436C33.1266 14.4436 31.4309 15.6636 29.9037 17.0751C27.9509 16.0122 25.7866 15.2608 23.4652 14.8979C12.6023 13.1993 2.42088 20.6279 0.720883 31.4893C-0.977688 42.3522 6.45088 52.5336 17.3123 54.2336C21.2252 54.8451 25.0509 54.2722 28.4223 52.7822C32.1709 56.8836 37.2866 59.7879 43.2037 60.7136C49.5009 61.6979 55.6195 60.2722 60.6195 57.1222C62.8952 58.8065 65.598 59.9808 68.5895 60.4493C75.5223 61.5336 82.1509 58.5336 86.0266 53.2365C87.9423 53.9579 90.0009 54.3979 92.1552 54.4951C103.138 54.9908 112.444 46.4879 112.938 35.5051C113.435 24.5193 104.932 15.2151 93.9494 14.7193Z" fill="#84B2FE"/>
  <path d="M92.2338 15.4587C89.9938 15.3572 87.8281 15.6501 85.801 16.2729C81.6296 10.4844 74.9481 6.59009 67.2667 6.24294C63.1239 6.0558 59.1781 6.92437 55.6881 8.60866C54.3081 4.82294 50.7595 2.0458 46.4838 1.85437C40.8081 1.59866 35.9995 5.99151 35.7438 11.6672C35.7038 12.5515 35.7781 13.4144 35.951 14.2429C34.211 15.1972 32.5938 16.3601 31.1381 17.7072C29.2753 16.6944 27.211 15.9772 24.9967 15.6301C14.6353 14.0101 4.92241 21.0958 3.30098 31.4572C1.68098 41.8187 8.7667 51.5315 19.1281 53.1529C22.861 53.7372 26.5096 53.1901 29.7253 51.7687C33.301 55.6815 38.181 58.4515 43.8253 59.3344C49.8324 60.2744 55.6681 58.9144 60.4381 55.9087C62.6081 57.5144 65.1881 58.6358 68.041 59.0815C74.6538 60.1158 80.9767 57.2544 84.6753 52.2001C86.5024 52.8887 88.4653 53.3072 90.5224 53.4001C101 53.8729 109.875 45.7615 110.348 35.2858C110.821 24.8072 102.711 15.9315 92.2338 15.4587Z" fill="white"/>
</svg>