<svg xmlns="http://www.w3.org/2000/svg" width="87" height="74" viewBox="0 0 87 74" fill="none">
  <path d="M55.3403 32.9785H2.36315C1.10744 32.9785 0.0888672 33.9971 0.0888672 35.2528V71.4871C0.0888672 72.7428 1.10744 73.7614 2.36315 73.7614H55.3403C56.596 73.7614 57.6146 72.7428 57.6146 71.4871V35.2528C57.6132 33.9971 56.596 32.9785 55.3403 32.9785Z" fill="#84B2FE"/>
  <path d="M54.5431 37.2828C54.5588 37.4814 54.456 37.62 54.3917 37.7785L54.1803 38.2457C53.9574 38.7071 53.736 39.1714 53.4931 39.6242C52.9445 40.6842 52.3288 41.7428 51.6774 42.7414C46.6817 50.5614 38.366 56.25 28.8517 56.1928C17.3303 56.28 6.89025 47.9542 3.11454 37.3057C3.10454 37.28 3.11883 37.2514 3.14454 37.2414C3.1674 37.2328 3.19168 37.2428 3.20311 37.2614C3.95739 38.4042 4.73882 39.5142 5.56882 40.5771C15.006 52.8057 29.9531 57.1442 43.5317 48.8057C46.7917 46.8028 49.676 44.1457 51.986 41.0857C52.176 40.8442 52.4031 40.5128 52.5831 40.2657C52.866 39.87 53.1731 39.4114 53.4345 39.0014C53.7002 38.5828 53.9788 38.1257 54.226 37.6942C54.3188 37.55 54.3717 37.3871 54.5431 37.2828Z" fill="white"/>
  <path d="M21.5353 54.9848C15.7068 56.4562 10.5239 60.059 6.67821 64.6719C5.36535 66.2419 4.1882 67.939 3.1582 69.7333C5.61963 63.9376 9.63392 58.7462 14.8939 55.1947C16.6753 53.9905 18.6039 52.9705 20.6453 52.1862C21.4039 51.8947 22.2554 52.2733 22.5468 53.0319C22.8668 53.8448 22.3839 54.7748 21.5353 54.9848Z" fill="white"/>
  <path d="M54.536 69.738C50.566 62.7594 44.0389 56.9794 36.1818 54.9908C35.3946 54.7908 34.9189 53.9894 35.1189 53.2023C35.3189 52.4151 36.1203 51.9394 36.9075 52.1394C44.9589 55.1223 51.3118 61.948 54.536 69.738Z" fill="white"/>
  <path d="M73.184 42.1489C80.7785 34.5542 80.7783 22.241 73.1836 14.6465C65.5888 7.05206 53.2756 7.05228 45.6811 14.647C38.0867 22.2417 38.0869 34.555 45.6816 42.1494C53.2763 49.7439 65.5896 49.7436 73.184 42.1489Z" fill="#2C7EFE"/>
  <path d="M59.4747 41.312C57.4447 41.312 55.6019 40.9878 53.949 40.3392C52.2947 39.6906 50.8705 38.7835 49.6776 37.6192C48.4833 36.4535 47.5633 35.082 46.9148 33.5035C46.2662 31.9249 45.9419 30.2049 45.9419 28.3435C45.9419 26.502 46.2662 24.8006 46.9148 23.2406C47.5633 21.6806 48.489 20.3178 49.6919 19.152C50.8948 17.9863 52.3319 17.0849 54.0062 16.4449C55.679 15.8063 57.539 15.4863 59.589 15.4863C61.5633 15.4863 63.3676 15.792 65.0019 16.402C66.6376 17.0135 68.0476 17.8735 69.2305 18.982C70.4147 20.0906 71.3262 21.392 71.9647 22.8863C72.6033 24.3806 72.9233 26.012 72.9233 27.7778C72.9233 29.4506 72.6833 30.8792 72.2048 32.0635C71.7248 33.2478 71.0533 34.1492 70.189 34.7706C69.3247 35.3906 68.309 35.7006 67.1447 35.7006C65.8662 35.7006 64.8519 35.3249 64.1005 34.5735C63.349 33.822 62.9733 32.722 62.9733 31.2749V30.0163C62.9733 29.9906 62.9747 29.9649 62.9747 29.9406L63.0533 28.5363C63.0562 28.482 63.0562 28.4292 63.0533 28.3749L62.8076 24.4092C62.8062 24.3806 62.8047 24.352 62.8047 24.3249V23.032C62.8047 22.2749 63.419 21.6606 64.1762 21.6606H65.2676C66.0247 21.6606 66.639 22.2749 66.639 23.032V30.7949C66.639 31.472 66.7705 31.942 67.0333 32.2049C67.2962 32.4678 67.6162 32.5992 67.9919 32.5992C68.4247 32.5992 68.7947 32.4306 69.1062 32.092C69.4162 31.7535 69.6562 31.232 69.8247 30.5278C69.9933 29.8235 70.079 28.9249 70.079 27.8349C70.079 26.4063 69.829 25.1006 69.3319 23.9163C68.8333 22.732 68.119 21.7078 67.189 20.8435C66.259 19.9792 65.149 19.3163 63.8619 18.8563C62.5748 18.3963 61.1505 18.1663 59.5905 18.1663C58.0305 18.1663 56.6019 18.4206 55.3047 18.9278C54.0076 19.4349 52.899 20.1449 51.9776 21.0563C51.0562 21.9678 50.3462 23.0435 49.849 24.2849C49.3505 25.5249 49.1019 26.8792 49.1019 28.3449C49.1019 29.8492 49.3462 31.2249 49.8348 32.4749C50.3233 33.7249 51.0233 34.8063 51.9347 35.7178C52.8462 36.6292 53.9405 37.3392 55.219 37.8463C56.4976 38.3535 57.9162 38.6078 59.4762 38.6078C60.379 38.6078 61.309 38.5092 62.2676 38.312C62.7747 38.2078 63.2705 38.0706 63.7562 37.9006C64.4733 37.6492 65.259 38.0249 65.509 38.742C65.759 39.4606 65.3762 40.2449 64.6562 40.492C64.1147 40.6778 63.529 40.8349 62.9019 40.962C61.7447 41.1935 60.6033 41.312 59.4747 41.312ZM58.4605 35.7006C57.2576 35.7006 56.1633 35.4049 55.1762 34.812C54.189 34.2206 53.4047 33.3835 52.8219 32.302C52.239 31.222 51.9476 29.9763 51.9476 28.5663C51.9476 27.1563 52.2333 25.9163 52.8076 24.8449C53.3805 23.7735 54.1605 22.942 55.1476 22.3492C56.1348 21.7578 57.239 21.4606 58.4605 21.4606C59.7005 21.4606 60.7633 21.742 61.6462 22.3063C62.529 22.8706 63.2062 23.6792 63.6762 24.7306C64.1462 25.7835 64.3805 27.062 64.3805 28.5649C64.3805 30.0492 64.1547 31.3278 63.7033 32.3992C63.2519 33.4706 62.589 34.2878 61.7162 34.852C60.8419 35.4192 59.7562 35.7006 58.4605 35.7006ZM59.3333 32.4592C60.0105 32.4592 60.6162 32.3035 61.1519 31.9935C61.6876 31.6835 62.1062 31.2378 62.4062 30.6535C62.7062 30.0706 62.8576 29.3749 62.8576 28.5678C62.8576 27.7406 62.7076 27.0449 62.4062 26.482C62.1048 25.9178 61.6876 25.4863 61.1519 25.1849C60.6162 24.8849 60.0105 24.7335 59.3333 24.7335C58.6562 24.7335 58.0547 24.8835 57.529 25.1849C57.0019 25.4863 56.589 25.9235 56.289 26.4963C55.9876 27.0706 55.8376 27.7606 55.8376 28.5692C55.8376 29.3778 55.9876 30.0678 56.289 30.642C56.589 31.2149 57.0033 31.662 57.529 31.9806C58.0562 32.2992 58.6576 32.4592 59.3333 32.4592Z" fill="white"/>
</svg>