<svg xmlns="http://www.w3.org/2000/svg" width="99" height="91" viewBox="0 0 99 91" fill="none">
  <path d="M42.8117 2.38519C66.4931 1.15233 86.4131 17.1252 87.3031 38.0595C87.7317 48.1238 83.6817 57.5009 76.7331 64.6652C88.4217 80.498 97.6574 86.7652 97.0846 88.4109C96.5917 89.828 89.0474 87.1838 63.9617 73.7309C58.5646 76.2766 52.496 77.8609 46.0374 78.1966C22.356 79.4295 2.43599 63.4566 1.54599 42.5223C0.65599 21.588 19.1303 3.61804 42.8117 2.38519Z" fill="white"/>
  <path d="M96.3379 90.4175C95.155 90.4175 92.9336 89.856 87.9208 87.6418C82.4951 85.2446 74.4222 81.1789 63.9165 75.5546C58.3465 78.0846 52.3579 79.5332 46.1079 79.8575C34.3151 80.4703 23.0408 76.9775 14.3622 70.0189C5.58079 62.9789 0.496493 53.2403 0.0436357 42.6003C-0.409221 31.9603 3.82651 21.7375 11.9708 13.816C20.0208 5.98746 30.9479 1.33746 42.7408 0.723176C54.5336 0.110319 65.8079 3.60318 74.4865 10.5617C83.2679 17.6017 88.3522 27.3403 88.805 37.9803C89.2193 47.7117 85.6679 57.1775 78.7779 64.7917C85.0593 73.1346 90.4594 78.5618 94.0865 82.206C95.4665 83.5932 96.5579 84.6889 97.2894 85.5489C97.8851 86.2489 98.9936 87.5518 98.4879 89.006C98.2965 89.556 97.9036 89.9846 97.3822 90.2132C97.1265 90.326 96.8179 90.4175 96.3379 90.4175ZM64.0022 71.9046L64.6179 72.2346C74.9222 77.7603 82.9108 81.8032 88.3594 84.2518C90.9036 85.3946 92.6579 86.0818 93.8622 86.4932C93.3079 85.9203 92.6822 85.2918 92.0636 84.6703C88.4365 81.026 82.3665 74.926 75.5679 65.7175L74.6765 64.5103L75.7065 63.4489C82.6065 56.336 86.1922 47.3475 85.8008 38.1389C84.9508 18.1546 65.6951 2.86175 42.8822 4.04746C20.0665 5.23461 2.1965 22.4603 3.04793 42.446C3.4565 52.056 8.10222 60.8917 16.1279 67.3275C24.2565 73.8446 34.8536 77.1146 45.9665 76.5375C52.0965 76.2189 57.9522 74.7603 63.3708 72.2032L64.0022 71.9046Z" fill="#84B2FE"/>
  <path d="M61.5219 65.706C62.8048 62.2102 60.6205 58.5331 59.6605 56.916C57.9577 54.0488 55.6419 52.2688 53.8105 51.2088C52.5262 50.4645 50.9305 50.5188 49.6934 51.3388C48.2691 52.2845 46.8434 53.2302 45.4191 54.176C44.6248 54.7031 43.5719 54.6117 42.8805 53.9531C41.8619 52.9831 40.7691 51.816 39.6877 50.4302C38.1548 48.4674 37.0534 46.5888 36.2648 45.016C35.5291 43.6145 34.7791 41.9645 34.1205 40.0745C33.3619 37.8945 32.8891 35.8674 32.5934 34.0888C32.4877 33.456 32.8476 32.836 33.4519 32.616C34.6619 32.1745 36.4377 31.256 38.6434 30.366C40.0191 29.8102 40.9662 28.5245 41.0791 27.0445C41.2405 24.9345 41.0819 22.0174 39.6791 18.9917C38.8877 17.286 37.0891 13.4045 33.4805 12.486C29.1805 11.3917 24.9562 15.2631 23.9234 16.276C23.9234 16.276 23.832 16.3645 23.7534 16.4445C20.712 19.5331 17.2619 35.6374 25.5105 51.0531C33.6291 66.2288 48.5434 72.2674 52.7591 71.4902C53.6034 71.336 59.8848 70.1645 61.5219 65.706Z" fill="#2C7EFE"/>
  <path d="M48.3055 29.0841C48.1212 28.7341 48.0512 28.3212 48.1369 27.9026C48.3326 26.9412 49.2697 26.3198 50.2326 26.5141C50.7826 26.6255 52.2426 26.9841 53.8983 27.8884C54.9083 28.4398 55.8312 29.1069 56.644 29.8712C57.6455 30.8141 58.4826 31.9084 59.1312 33.1255C59.1412 33.1441 59.1512 33.1626 59.1612 33.1812C61.6312 37.8698 60.334 42.3726 59.8755 43.6441C59.5426 44.5684 58.524 45.0469 57.6012 44.7141C56.6769 44.3812 56.1983 43.3626 56.5312 42.4398C56.864 41.5141 57.8083 38.2384 56.0155 34.8384C56.0083 34.8255 56.0012 34.8112 55.994 34.7984C54.0097 31.0769 50.2569 30.1469 49.5255 29.9969C48.9797 29.8869 48.5455 29.5398 48.3055 29.0841Z" fill="#2C7EFE"/>
  <path d="M51.2898 21.797C51.1056 21.447 51.0355 21.0341 51.1213 20.6155C51.317 19.6541 52.2541 19.0327 53.217 19.227C54.0484 19.3955 56.2541 19.937 58.7713 21.3127C60.3041 22.1498 61.7041 23.1627 62.9355 24.3198C64.4498 25.7441 65.7156 27.3998 66.697 29.2412C66.7113 29.2684 66.727 29.297 66.7413 29.3255C70.4813 36.4241 68.517 43.2455 67.8227 45.1727C67.4898 46.097 66.4713 46.5755 65.5484 46.2427C64.6241 45.9098 64.1455 44.8912 64.4784 43.9684C65.0498 42.3812 66.6727 36.7484 63.5598 30.9127C60.1698 24.5527 53.7613 22.9641 52.5113 22.7112C51.9655 22.5998 51.5298 22.2527 51.2898 21.797Z" fill="#2C7EFE"/>
</svg>