<svg xmlns="http://www.w3.org/2000/svg" width="69" height="69" viewBox="0 0 69 69" fill="none">
  <path d="M51.6762 51.2758C61.057 41.8947 61.0567 26.6852 51.6756 17.3044C42.2945 7.92363 27.085 7.92389 17.7042 17.305C8.32338 26.6861 8.32365 41.8956 17.7048 51.2764C27.0859 60.6572 42.2954 60.657 51.6762 51.2758Z" fill="#C4D1F7"/>
  <path d="M49.2198 48.8203C57.2443 40.7954 57.2441 27.7848 49.2192 19.7602C41.1944 11.7356 28.1838 11.7359 20.1592 19.7607C12.1346 27.7856 12.1348 40.7962 20.1597 48.8208C28.1845 56.8454 41.1952 56.8451 49.2198 48.8203Z" fill="#84B2FE"/>
  <path d="M48.0231 47.6223C55.386 40.2591 55.3858 28.3213 48.0226 20.9583C40.6594 13.5954 28.7215 13.5956 21.3586 20.9588C13.9957 28.322 13.9959 40.2599 21.3591 47.6228C28.7223 54.9857 40.6601 54.9855 48.0231 47.6223Z" fill="white"/>
  <path d="M50.7626 26.548C50.4969 25.6937 49.9155 24.9952 49.1255 24.578C48.334 24.1623 47.4283 24.078 46.5755 24.3437C42.3969 25.6409 38.4455 27.5466 34.8298 30.0066C32.2126 31.788 29.7926 33.8466 27.6169 36.1423L24.184 32.7094C22.8798 31.4052 20.7569 31.4052 19.4512 32.7094C18.8198 33.3409 18.4712 34.1823 18.4712 35.0752C18.4712 35.9694 18.8198 36.8094 19.4512 37.4409L25.4169 43.408C26.0483 44.0394 26.8898 44.388 27.7826 44.388C27.844 44.388 27.9069 44.3866 27.9683 44.3823C28.9183 44.3295 29.804 43.8723 30.3969 43.1294C32.7369 40.2009 35.494 37.6466 38.5926 35.538C41.6612 33.4509 45.014 31.8337 48.5583 30.7337C50.3212 30.188 51.3098 28.3094 50.7626 26.548Z" fill="#84B2FE"/>
</svg>