<svg xmlns="http://www.w3.org/2000/svg" width="237" height="219" viewBox="0 0 237 219" fill="none">
  <path d="M177.72 178.321C210.394 145.646 210.393 92.6709 177.718 59.9974C145.044 27.3239 92.0684 27.3249 59.3949 59.9995C26.7215 92.6741 26.7224 145.649 59.397 178.323C92.0716 210.996 145.047 210.995 177.72 178.321Z" fill="#4E93F9"/>
  <path d="M169.17 169.768C197.121 141.816 197.12 96.4979 169.168 68.5469C141.216 40.5958 95.8977 40.5966 67.9467 68.5486C39.9957 96.5006 39.9965 141.819 67.9485 169.77C95.9004 197.721 141.219 197.72 169.17 169.768Z" fill="white"/>
  <path d="M118.561 184.828C154.829 184.828 184.231 155.427 184.231 119.158C184.231 82.8897 154.829 53.4883 118.561 53.4883C82.2921 53.4883 52.8906 82.8897 52.8906 119.158C52.8906 155.427 82.2921 184.828 118.561 184.828Z" fill="#84B2FE"/>
  <path d="M118.561 64.4883C99.587 64.4883 84.2056 79.8711 84.2056 98.844C84.2056 108.367 88.0798 116.984 94.3384 123.205C100.55 129.383 109.108 133.2 118.561 133.2C128.013 133.2 136.573 129.381 142.784 123.205C149.043 116.983 152.917 108.365 152.917 98.844C152.917 79.8697 137.534 64.4883 118.561 64.4883Z" fill="white"/>
  <path d="M168.314 150.073C157.447 165.907 139.217 176.293 118.56 176.293C97.9028 176.293 79.6728 165.906 68.8057 150.073C74.2842 142.121 81.6171 135.547 90.1828 130.979C97.4585 138.216 107.486 142.686 118.56 142.686C129.634 142.686 139.661 138.213 146.937 130.979C155.501 135.547 162.836 142.123 168.314 150.073Z" fill="white"/>
</svg>