<svg xmlns="http://www.w3.org/2000/svg" width="70" height="157" viewBox="0 0 70 157" fill="none">
  <path d="M31.307 35.207C32.6342 43.677 33.8285 52.5128 34.8385 61.6942C35.6371 68.9528 36.277 76.0213 36.7813 82.8842C35.2899 82.5699 33.7985 82.257 32.3085 81.9428C31.6799 75.547 31.0527 69.1499 30.4256 62.7542C28.3527 53.8642 26.2799 44.9727 24.207 36.0827C26.5727 35.7913 28.9399 35.4999 31.307 35.207Z" fill="#2C7EFE"/>
  <path d="M36.317 148.42C40.5627 150.552 44.237 148.702 45.4099 150.726C45.9456 151.65 45.6856 152.91 45.2813 153.672C42.8013 158.352 27.7799 157.667 25.9427 152.903C24.8199 149.992 28.3999 144.989 31.3213 144.963C33.1527 144.946 33.2841 146.897 36.317 148.42Z" fill="#153663"/>
  <path d="M10.9353 140.799C12.671 145.221 16.641 146.299 16.1624 148.588C15.9439 149.634 14.9082 150.398 14.0996 150.695C9.12815 152.521 -1.59469 141.979 0.219592 137.206C1.32816 134.289 7.33531 132.958 9.52674 134.889C10.901 136.101 9.69531 137.639 10.9353 140.799Z" fill="#153663"/>
  <path d="M64.9021 34.6988C62.7979 34.7145 60.6921 34.7303 58.5879 34.746C57.765 34.7517 57.165 33.9717 57.3807 33.1774C58.5835 28.7645 59.7878 24.3517 60.9907 19.9388C61.1335 19.4174 61.5964 19.0474 62.1364 19.0245C64.1378 18.9417 66.1393 18.8574 68.1407 18.7745C68.9664 18.7403 69.595 19.5074 69.3978 20.3117C68.2978 24.7917 67.1978 29.2731 66.0978 33.7531C65.9635 34.306 65.4707 34.6945 64.9021 34.6988Z" fill="#153663"/>
  <path d="M63.7199 21.2835C63.7199 21.765 63.3299 22.155 62.8485 22.155C62.367 22.155 61.9771 21.765 61.9771 21.2835C61.9771 20.8021 62.367 20.4121 62.8485 20.4121C63.3299 20.4121 63.7199 20.8021 63.7199 21.2835Z" fill="white"/>
  <path d="M45.6115 94.6157C46.7658 96.6771 48.1015 99.9099 47.1415 103.193C46.7472 104.543 46.0801 105.5 45.6115 106.099C41.4101 111.463 13.5301 138.453 11.7072 140.216C10.9258 140.001 9.23011 139.421 7.7044 137.861C6.0044 136.124 5.50724 134.176 5.3501 133.389C15.7087 122.637 26.0701 111.884 36.4287 101.133C28.423 85.6328 20.4187 70.1328 12.413 54.6328C19.0244 57.96 25.6358 61.2842 32.2472 64.6114C36.7015 74.6114 41.1573 84.6128 45.6115 94.6157Z" fill="#0643A3"/>
  <path d="M11.3545 72.2026C14.5516 80.3954 17.6345 89.7197 20.1831 100.103C24.5645 117.95 26.1816 134.084 26.5402 147.427C27.3659 147.781 29.0588 148.378 31.2488 148.221C33.3902 148.068 34.9545 147.268 35.7216 146.808C35.4331 132.757 34.1145 116.36 30.7774 98.3068C28.0902 83.7711 24.5802 70.774 20.8888 59.4883C17.7116 63.7269 14.5331 67.9654 11.3545 72.2026Z" fill="#0643A3"/>
  <path d="M57.9498 40.9092C58.7927 40.8107 58.7884 39.9264 60.3184 38.6021C61.1084 37.9178 61.8212 37.4992 62.2855 37.2321C64.0512 36.2164 64.4569 36.5178 65.2384 35.8492C66.7812 34.5292 66.6441 32.1178 66.6198 31.7778C66.587 31.3221 66.4441 29.6464 65.1269 28.3521C63.4669 26.7221 60.4798 26.2249 59.0184 27.4192C56.937 29.1178 59.6798 32.8221 57.1012 36.5378C56.4098 37.5335 55.4812 38.3307 55.7055 39.3307C55.9055 40.2364 57.0141 41.0192 57.9498 40.9092Z" fill="#F9B691"/>
  <path d="M26.4132 28.7955C29.9718 31.1469 31.1018 34.6812 31.7061 36.5654C32.8532 40.1483 32.5275 43.2369 32.1046 47.2483C31.7018 51.0712 31.1461 51.6726 30.9389 54.5697C30.6332 58.8512 31.5032 62.3726 32.2461 64.6083C31.8989 65.4626 29.4546 71.1912 23.0075 73.3483C17.4318 75.214 12.7146 73.1183 11.7061 72.6426C7.8632 61.2883 6.73606 52.054 6.40749 45.9554C6.1332 40.8497 6.34034 36.604 8.99463 32.7926C9.72749 31.7412 12.3418 27.9869 17.3132 27.0212C18.0289 26.8812 22.3532 26.1126 26.4132 28.7955Z" fill="#84B2FE"/>
  <path d="M25.9227 23.4256C26.1556 26.0327 25.5099 28.1513 25.0084 29.3913C24.537 30.997 22.9813 32.027 21.3813 31.8413C19.6698 31.6427 18.3441 30.1013 18.4127 28.307C18.4084 26.3127 18.5256 24.0342 18.867 21.5399C19.2641 18.6442 19.8784 16.0985 20.5313 13.957C21.3713 14.6085 25.4284 17.8899 25.9227 23.4256Z" fill="#FFCDAD"/>
  <path d="M30.8635 12.138C31.9435 13.3337 32.1778 14.6937 32.4306 16.1623C32.6478 17.4209 33.8535 24.4266 29.6249 26.9351C26.6963 28.6723 22.5549 27.4251 20.1878 25.198C16.6521 21.8723 15.8521 15.2137 19.6135 11.8709C22.8049 9.03515 28.3792 9.38514 30.8635 12.138Z" fill="#FFCDAD"/>
  <path d="M29.3621 25.0509C28.5336 25.1752 27.1764 25.2552 25.6007 24.7637C24.4664 24.4109 23.5893 23.878 22.9907 23.4395C23.0822 23.7452 23.5821 25.3066 25.0107 26.0252C26.4079 26.7294 28.1307 26.3466 29.3621 25.0509Z" fill="white"/>
  <path d="M20.3772 14.3459C24.28 10.3873 32.28 15.6759 35.4272 12.1002C37.13 10.1659 36.7286 6.45163 35.0586 4.03449C33.5029 1.78306 30.7957 0.58592 28.23 0.807348C25.1115 1.07592 23.2115 3.3502 22.7686 3.88163C21.6815 5.18306 22.0143 5.6102 20.8757 7.07306C19.0286 9.44592 17.4129 9.27449 16.2657 10.7345C13.6943 14.0059 16.7872 21.2259 18.0729 21.1273C18.9843 21.0545 17.8557 16.9002 20.3772 14.3459Z" fill="#060352"/>
  <path d="M14.5268 29.2898C21.0996 29.1684 22.2868 44.1398 30.4196 47.4784C34.7853 49.2698 42.5325 48.2769 57.2596 34.2341C57.7168 34.3127 58.7939 34.5627 59.7311 35.4698C61.2253 36.9155 61.1596 38.8612 61.1439 39.1784C52.611 53.6012 38.1553 60.6298 26.8768 57.1955C15.5482 53.7469 6.25819 39.3855 9.47105 32.8284C10.2982 31.1427 12.2653 29.3312 14.5268 29.2898Z" fill="#2C7EFE"/>
</svg>