<svg xmlns="http://www.w3.org/2000/svg" width="325" height="207" viewBox="0 0 325 207" fill="none">
  <path opacity="0.3" d="M56.8477 84.7725C49.6477 99.0954 28.2006 94.7497 12.7677 110.998C-3.26368 127.875 -4.10797 156.98 14.5092 174.938C33.4006 193.161 64.7863 192.628 80.0906 192.37C105.239 191.944 114.672 185.311 134.605 181.484C204.385 168.084 242.372 219.868 287.182 203.274C311.565 194.244 328.425 168.48 323.918 149.987C316.203 118.335 243.711 111.683 247.023 95.8625C249.808 82.5683 301.351 85.5783 310.408 65.904C318.528 48.2654 286.973 24.394 264.835 13.804C254.631 8.92253 224.776 -5.86175 199.533 3.73682C179.562 11.3311 179.888 26.5182 162.391 29.9354C141.295 34.0554 133.433 13.4254 103.545 11.2825C81.5235 9.70253 53.3806 18.5797 46.5735 34.154C38.5692 52.4611 65.5306 67.4997 56.8477 84.7725Z" fill="#D5F0FF"/>
</svg>