<?xml version="1.0" encoding="UTF-8"?>
<svg version="1.1" xmlns="http://www.w3.org/2000/svg" width="72" height="72">
<path d="M0 0 C2.4375 1.375 2.4375 1.375 4 3 C4 3.99 4 4.98 4 6 C2.1875 6.625 2.1875 6.625 0 7 C-0.99 6.34 -1.98 5.68 -3 5 C-6.07665027 5.08221709 -6.07665027 5.08221709 -9 6 C-11.30373621 8.8481711 -11.30373621 8.8481711 -10.9765625 12.23828125 C-9.74797694 16.97079281 -7.55581215 19.57759314 -4.375 23.1875 C-2.42638671 25.40939443 -0.71760194 27.57705981 1 30 C0.64208984 32.20043945 0.64208984 32.20043945 0 34 C-2.48782625 33.61656198 -3.74257908 33.25921679 -5.53979492 31.44946289 C-6.01521729 30.7971167 -6.49063965 30.14477051 -6.98046875 29.47265625 C-7.76647461 28.40821289 -7.76647461 28.40821289 -8.56835938 27.32226562 C-9.10267578 26.57654297 -9.63699219 25.83082031 -10.1875 25.0625 C-10.73341797 24.32064453 -11.27933594 23.57878906 -11.84179688 22.81445312 C-15.68831071 17.55707424 -17.56629439 14.79553271 -17 8 C-13.23466369 0.46932738 -8.1872992 -2.12263313 0 0 Z " fill="#3B6EAD" transform="translate(28,13)"/>
<path d="M0 0 C1.32 0 2.64 0 4 0 C3.96519531 0.75925781 3.93039063 1.51851562 3.89453125 2.30078125 C3.85392578 3.79158203 3.85392578 3.79158203 3.8125 5.3125 C3.77769531 6.29863281 3.74289063 7.28476562 3.70703125 8.30078125 C3.80274372 10.97468712 3.80274372 10.97468712 5.13671875 12.85546875 C8.09254512 14.67110214 9.57119326 14.65562694 13 14 C15.82532426 11.92522336 18.1983638 9.45839797 20.625 6.9375 C21.9183179 5.60217473 23.2225759 4.27733292 24.5390625 2.96484375 C25.10834473 2.3730835 25.67762695 1.78132324 26.26416016 1.17163086 C28 0 28 0 30.21630859 0.31469727 C30.80492676 0.54084717 31.39354492 0.76699707 32 1 C30.96530717 8.48032033 21.73582231 14.62984967 16 19 C12.38069302 20.20643566 9.80768995 20.32268559 6 20 C2.94642921 18.38679279 0.76166434 16.96939098 -1.375 14.25 C-2.57133565 9.94319166 -2.66656388 5.66640969 -1 1.5 C-0.67 1.005 -0.34 0.51 0 0 Z " fill="#5691CB" transform="translate(15,42)"/>
<path d="M0 0 C3.06163096 1.73854618 5.40059772 3.80119543 7 7 C7.42535668 11.23720693 7.68440794 14.83080311 5.5 18.5625 C5.005 19.036875 4.51 19.51125 4 20 C3.01 19.67 2.02 19.34 1 19 C1.226875 17.783125 1.45375 16.56625 1.6875 15.3125 C2.04517283 12.30698056 1.98513654 10.95540962 1 8 C-0.91261195 5.70701618 -0.91261195 5.70701618 -4.14453125 5.43359375 C-9.64022734 6.24096552 -11.96270009 9.14225146 -15.6875 13.0625 C-16.97177047 14.39768307 -18.26691258 15.72251957 -19.57421875 17.03515625 C-20.13713623 17.6269165 -20.70005371 18.21867676 -21.2800293 18.82836914 C-23 20 -23 20 -25.21411133 19.68530273 C-25.80345459 19.45915283 -26.39279785 19.23300293 -27 19 C-26.23327494 12.85200088 -20.29454694 8.96173555 -16 5 C-15.37222656 4.41863281 -14.74445312 3.83726563 -14.09765625 3.23828125 C-9.70790744 -0.36647718 -5.45158313 -1.26642948 0 0 Z " fill="#4A82BE" transform="translate(51,12)"/>
<path d="M0 0 C4 0 4 0 5.64746094 1.52539062 C7.36885974 3.83683197 9.0765516 6.15349433 10.75 8.5 C11.35199219 9.29148437 11.95398438 10.08296875 12.57421875 10.8984375 C16.39653803 16.1855458 17.91002 19.4676084 17 26 C14.98497111 29.75212276 13.54533858 31.63644095 10 34 C7.87890625 34.265625 7.87890625 34.265625 5.5625 34.25 C4.80066406 34.25515625 4.03882813 34.2603125 3.25390625 34.265625 C0.72068638 33.96708262 -0.87207022 33.40303062 -3 32 C-3.33 31.01 -3.66 30.02 -4 29 C-3.67 28.34 -3.34 27.68 -3 27 C1.84615385 27.94230769 1.84615385 27.94230769 4 28.75 C6.16822742 29.17529208 6.16822742 29.17529208 8.75 28 C11.33488529 26.13803513 11.33488529 26.13803513 11.4453125 22.7890625 C10.90476144 18.18963678 9.06155233 15.7564845 6.125 12.375 C3.09256 8.77344661 0.47160988 5.55015009 -1 1 C-0.67 0.67 -0.34 0.34 0 0 Z " fill="#5C99D3" transform="translate(43,28)"/>
<path d="M0 0 C0.66 0 1.32 0 2 0 C2 0.66 2 1.32 2 2 C2.99 2.33 3.98 2.66 5 3 C4.49697411 7.40147657 2.97554199 9.75395419 0 13 C-2.32595946 14.16297973 -3.78723231 14.16600691 -6.375 14.1875 C-7.14585938 14.20167969 -7.91671875 14.21585938 -8.7109375 14.23046875 C-11.28261026 13.97154607 -12.84834486 13.42653788 -15 12 C-15.33 11.01 -15.66 10.02 -16 9 C-15.67 8.34 -15.34 7.68 -15 7 C-10.15384615 7.94230769 -10.15384615 7.94230769 -8 8.75 C-5.83446749 9.18324817 -5.83446749 9.18324817 -3.3125 7.9375 C-0.70396155 6.13514442 -0.70396155 6.13514442 -0.1875 2.8125 C-0.0946875 1.4203125 -0.0946875 1.4203125 0 0 Z " fill="#3466A7" transform="translate(55,48)"/>
<path d="M0 0 C0.99 0 1.98 0 3 0 C3.2475 0.61875 3.495 1.2375 3.75 1.875 C5.20628639 4.35068687 6.37812506 4.95125002 9 6 C7.74359102 9.76922693 5.99175638 11.425698 3 14 C1.68 14 0.36 14 -1 14 C-1.061875 13.38125 -1.12375 12.7625 -1.1875 12.125 C-1.828919 9.72238859 -1.828919 9.72238859 -4.5625 8.75 C-5.366875 8.5025 -6.17125 8.255 -7 8 C-7 7.34 -7 6.68 -7 6 C-5.33720673 4.9935725 -3.67016516 3.99414593 -2 3 C-1.34 2.01 -0.68 1.02 0 0 Z M0 5 C0 5.66 0 6.32 0 7 C-0.99 7.495 -0.99 7.495 -2 8 C-0.10820797 8.6814823 -0.10820797 8.6814823 2 9 C2.66 8.34 3.32 7.68 4 7 C3.34 7 2.68 7 2 7 C2 6.34 2 5.68 2 5 C1.34 5 0.68 5 0 5 Z " fill="#7EC6FB" transform="translate(35,30)"/>
<path d="M0 0 C3.1974038 3.00362175 6.08519986 6.1744862 8.875 9.5625 C9.79925781 10.67818359 9.79925781 10.67818359 10.7421875 11.81640625 C12 14 12 14 11.6953125 16.27734375 C11.46585938 16.84582031 11.23640625 17.41429688 11 18 C7.75701615 17.73099673 6.86913188 16.86281991 4.5703125 14.453125 C3.74415379 13.39394717 2.92932649 12.32585072 2.125 11.25 C1.69703125 10.7240625 1.2690625 10.198125 0.828125 9.65625 C-0.3671875 8.078125 -0.3671875 8.078125 -2 5 C-1.2578125 2.109375 -1.2578125 2.109375 0 0 Z " fill="#60A0DA" transform="translate(17,29)"/>
<path d="M0 0 C1.32 0 2.64 0 4 0 C3.98839844 0.75925781 3.97679687 1.51851562 3.96484375 2.30078125 C3.95582031 3.29464844 3.94679688 4.28851563 3.9375 5.3125 C3.92589844 6.29863281 3.91429687 7.28476562 3.90234375 8.30078125 C3.87670138 11.09963849 3.87670138 11.09963849 5 14 C4.0625 16.1875 4.0625 16.1875 3 18 C-1.94104803 13.21834061 -1.94104803 13.21834061 -2.1875 8.125 C-2.15842146 4.92636109 -1.81581501 2.72372251 0 0 Z " fill="#2F61A2" transform="translate(15,42)"/>
</svg>
